<svg width="25" height="25" viewBox="0 0 25 25" fill="none" xmlns="http://www.w3.org/2000/svg">
<path d="M9.5 3.5C9.5 2.83696 9.79851 2.20107 10.3299 1.73223C10.8612 1.26339 11.5819 1 12.3333 1C13.0848 1 13.8054 1.26339 14.3368 1.73223C14.8682 2.20107 15.1667 2.83696 15.1667 3.5C16.7936 4.17878 18.1805 5.23541 19.1787 6.55662C20.177 7.87784 20.749 9.41384 20.8333 11V14.75C20.9399 15.5271 21.2519 16.2713 21.744 16.9227C22.2361 17.574 22.8947 18.1143 23.6667 18.5H1C1.772 18.1143 2.43056 17.574 2.92268 16.9227C3.4148 16.2713 3.72672 15.5271 3.83333 14.75V11C3.91771 9.41384 4.48968 7.87784 5.48793 6.55662C6.48618 5.23541 7.87309 4.17878 9.5 3.5Z" stroke="#CECECE" stroke-width="1.8" stroke-linecap="round" stroke-linejoin="round"/>
<path d="M8.0835 18.5V19.75C8.0835 20.7446 8.53126 21.6984 9.32829 22.4017C10.1253 23.1049 11.2063 23.5 12.3335 23.5C13.4607 23.5 14.5417 23.1049 15.3387 22.4017C16.1357 21.6984 16.5835 20.7446 16.5835 19.75V18.5" stroke="#CECECE" stroke-width="1.8" stroke-linecap="round" stroke-linejoin="round"/>
</svg>
