<svg width="35" height="35" viewBox="0 0 35 35" fill="none" xmlns="http://www.w3.org/2000/svg">
<path d="M20.4167 11.6667V8.75004C20.4167 7.97649 20.1094 7.23463 19.5624 6.68765C19.0154 6.14066 18.2735 5.83337 17.5 5.83337H7.29167C6.51812 5.83337 5.77625 6.14066 5.22927 6.68765C4.68229 7.23463 4.375 7.97649 4.375 8.75004V26.25C4.375 27.0236 4.68229 27.7655 5.22927 28.3124C5.77625 28.8594 6.51812 29.1667 7.29167 29.1667H17.5C18.2735 29.1667 19.0154 28.8594 19.5624 28.3124C20.1094 27.7655 20.4167 27.0236 20.4167 26.25V23.3334" stroke="#D30000" stroke-width="4" stroke-linecap="round" stroke-linejoin="round"/>
<path d="M13.125 17.5H30.625L26.25 13.125" stroke="#D30000" stroke-width="4" stroke-linecap="round" stroke-linejoin="round"/>
<path d="M26.25 21.875L30.625 17.5" stroke="#D30000" stroke-width="4" stroke-linecap="round" stroke-linejoin="round"/>
</svg>
