<svg width="28" height="28" viewBox="0 0 28 28" fill="none" xmlns="http://www.w3.org/2000/svg">
<path d="M4.66667 14H2L14 2L26 14H23.3333" stroke="#ED76FE" stroke-width="3" stroke-linecap="round" stroke-linejoin="round"/>
<path d="M4.6665 14V23.3333C4.6665 24.0406 4.94746 24.7189 5.44755 25.219C5.94765 25.719 6.62593 26 7.33317 26M20.6665 26C21.3737 26 22.052 25.719 22.5521 25.219C23.0522 24.7189 23.3332 24.0406 23.3332 23.3333V14" stroke="#ED76FE" stroke-width="3" stroke-linecap="round" stroke-linejoin="round"/>
<path d="M7.6001 26H10.0001V18C10.0001 17.2928 10.281 16.6145 10.7811 16.1144C11.2812 15.6143 11.9595 15.3334 12.6668 15.3334H15.3334C16.0407 15.3334 16.719 15.6143 17.219 16.1144C17.7191 16.6145 18.0001 17.2928 18.0001 18V26H20.8572" stroke="#ED76FE" stroke-width="3" stroke-linecap="round" stroke-linejoin="round"/>
</svg>
