<svg width="58" height="53" viewBox="0 0 58 53" fill="none" xmlns="http://www.w3.org/2000/svg">
<g filter="url(#filter0_d_15_511)">
<rect x="17.0273" y="16.8855" width="4.96184" height="14.8855" rx="2.48092" transform="rotate(-180 17.0273 16.8855)" fill="#CECECE"/>
<rect x="51.8047" y="31.6735" width="4.96184" height="14.8855" rx="2.48092" transform="rotate(90 51.8047 31.6735)" fill="#CECECE"/>
<rect x="17.0176" y="46.5587" width="4.96184" height="14.8855" rx="2.48092" transform="rotate(-180 17.0176 46.5587)" fill="#CECECE"/>
<rect x="37.083" y="2.03815" width="4.96184" height="14.8855" rx="2.48092" fill="#CECECE"/>
<rect x="17.0176" y="16.7877" width="14.8855" height="4.96184" rx="2.48092" transform="rotate(-180 17.0176 16.7877)" fill="#CECECE"/>
<rect x="41.8379" y="31.6278" width="14.8855" height="4.96184" rx="2.48092" transform="rotate(90 41.8379 31.6278)" fill="#CECECE"/>
<rect x="16.8857" y="36.6284" width="14.8855" height="4.96184" rx="2.48092" transform="rotate(-180 16.8857 36.6284)" fill="#CECECE"/>
<rect x="37.1143" y="11.9319" width="14.8855" height="4.96184" rx="2.48092" fill="#CECECE"/>
</g>
<defs>
<filter id="filter0_d_15_511" x="0" y="0" width="58" height="52.5587" filterUnits="userSpaceOnUse" color-interpolation-filters="sRGB">
<feFlood flood-opacity="0" result="BackgroundImageFix"/>
<feColorMatrix in="SourceAlpha" type="matrix" values="0 0 0 0 0 0 0 0 0 0 0 0 0 0 0 0 0 0 127 0" result="hardAlpha"/>
<feOffset dx="2" dy="2"/>
<feGaussianBlur stdDeviation="2"/>
<feComposite in2="hardAlpha" operator="out"/>
<feColorMatrix type="matrix" values="0 0 0 0 0 0 0 0 0 0 0 0 0 0 0 0 0 0 0.5 0"/>
<feBlend mode="normal" in2="BackgroundImageFix" result="effect1_dropShadow_15_511"/>
<feBlend mode="normal" in="SourceGraphic" in2="effect1_dropShadow_15_511" result="shape"/>
</filter>
</defs>
</svg>
