<svg width="28" height="28" viewBox="0 0 28 28" fill="none" xmlns="http://www.w3.org/2000/svg">
<path d="M10.7 16.1999C10 16.6999 9.1 16.9999 8.2 16.9999H6C5.4 16.9999 5 17.3999 5 17.9999C5 18.5999 5.4 18.9999 6 18.9999H8.2C9.5 18.9999 10.8 18.5999 11.9 17.7999C12.3 17.4999 12.4 16.7999 12.1 16.3999C11.7 15.8999 11.1 15.7999 10.7 16.1999Z" fill="#ED76FE"/>
<path d="M15 12.7C15.3 12.7 15.6 12.6 15.8 12.4C16.5 11.5 17.6 11 18.8 11H19.6L19.3 11.3C18.9 11.7 18.9 12.3 19.3 12.7C19.5 12.9 19.8 13 20 13C20.2 13 20.5 12.9 20.7 12.7L22.7 10.7C22.8 10.6 22.9 10.5 22.9 10.4C23 10.2 23 9.9 22.9 9.6C22.8 9.5 22.8 9.4 22.7 9.3L20.7 7.3C20.3 6.9 19.7 6.9 19.3 7.3C18.9 7.7 18.9 8.3 19.3 8.7L19.6 9H18.8C17 9 15.4 9.8 14.2 11.1C13.8 11.5 13.9 12.1 14.3 12.5C14.5 12.7 14.8 12.7 15 12.7Z" fill="#ED76FE"/>
<path d="M22.7 17.3L20.7 15.3C20.3 14.9 19.7 14.9 19.3 15.3C18.9 15.7 18.9 16.3 19.3 16.7L19.6 17H18.1C16.5 17 15.2 16.1 14.5 14.7L13.3 12.3C12.3 10.3 10.2 9 7.9 9H6C5.4 9 5 9.4 5 10C5 10.6 5.4 11 6 11H7.9C9.5 11 10.8 11.9 11.5 13.3L12.7 15.7C13.7 17.8 15.8 19.1 18.1 19.1H19.6L19.3 19.4C18.9 19.8 18.9 20.4 19.3 20.8C19.5 21 19.8 21.1 20 21.1C20.2 21.1 20.5 21 20.7 20.8L22.7 18.8C23.1 18.3 23.1 17.7 22.7 17.3Z" fill="#ED76FE"/>
<path d="M2 23V5C2 4.20435 2.31607 3.44129 2.87868 2.87868C3.44129 2.31607 4.20435 2 5 2H23C23.7956 2 24.5587 2.31607 25.1213 2.87868C25.6839 3.44129 26 4.20435 26 5V23C26 23.7956 25.6839 24.5587 25.1213 25.1213C24.5587 25.6839 23.7956 26 23 26H5C4.20435 26 3.44129 25.6839 2.87868 25.1213C2.31607 24.5587 2 23.7956 2 23Z" stroke="#ED76FE" stroke-width="3" stroke-linecap="round" stroke-linejoin="round"/>
</svg>
