<svg width="22" height="22" viewBox="0 0 22 22" fill="none" xmlns="http://www.w3.org/2000/svg">
<path d="M9.3208 13L20.3208 2" stroke="black" stroke-width="2.5" stroke-linecap="round" stroke-linejoin="round"/>
<path d="M20.3209 2L13.8209 20C13.777 20.0957 13.7066 20.1769 13.6179 20.2338C13.5293 20.2906 13.4262 20.3209 13.3209 20.3209C13.2156 20.3209 13.1125 20.2906 13.0238 20.2338C12.9352 20.1769 12.8647 20.0957 12.8209 20L9.32087 13L2.32087 9.5C2.22513 9.45613 2.144 9.38569 2.08712 9.29705C2.03024 9.20842 2 9.10532 2 9C2 8.89468 2.03024 8.79158 2.08712 8.70295C2.144 8.61431 2.22513 8.54387 2.32087 8.5L20.3209 2Z" stroke="black" stroke-width="2.5" stroke-linecap="round" stroke-linejoin="round"/>
</svg>
